<svg xmlns="http://www.w3.org/2000/svg" viewBox="0 0 400 300" data-imageid="new-message-e6" imageName="Sent messages" class="illustrations_image" style="width: 241px;"><g id="tei5fo5abvz1574smuf7_299_sent_messages_outline" data-name="#299_sent_messages_outline"><path d="M294.46,150a93.92,93.92,0,0,1-13.69,49h0a93.48,93.48,0,0,1-5.95,8.66,96.29,96.29,0,0,1-6.66,7.74,94.06,94.06,0,0,1-27.37,19.81h0a92.19,92.19,0,0,1-13.27,5.18c-.85.26-1.7.51-2.56.74a95.2,95.2,0,0,1-47.47.63c-.82-.2-1.62-.41-2.43-.63a93.26,93.26,0,0,1-20.47-8.3c-.21-.1-.41-.22-.62-.34A94.46,94.46,0,1,1,280.11,99.94c1.1,1.74,2.13,3.52,3.11,5.34A94,94,0,0,1,294.46,150Z" fill="#fff"/><path d="M200,245.46a96.28,96.28,0,0,1-22.76-2.73c-.82-.2-1.63-.41-2.45-.64a94.18,94.18,0,0,1-20.69-8.38l-.53-.29-.11-.06a95.47,95.47,0,1,1,99.24-163,97.91,97.91,0,0,1,7.91,5.85A95.48,95.48,0,0,1,281,99.41c1.08,1.7,2.1,3.47,3.14,5.4a95.5,95.5,0,0,1-2.43,94.61.41.41,0,0,1-.05.09,93.69,93.69,0,0,1-6,8.75,97.2,97.2,0,0,1-6.73,7.82,94.58,94.58,0,0,1-27.59,20l-.08,0a92.68,92.68,0,0,1-13.41,5.24c-.86.26-1.72.51-2.59.75A95.85,95.85,0,0,1,200,245.46Zm0-188.92a93.47,93.47,0,0,0-45.55,175.08l.12.07c.15.08.29.17.44.24a92.78,92.78,0,0,0,20.3,8.24l2.41.62a94.68,94.68,0,0,0,47-.62c.85-.23,1.69-.48,2.53-.74a91,91,0,0,0,13.06-5.09l.08,0a92.85,92.85,0,0,0,27.08-19.6A99.11,99.11,0,0,0,274,207a93.45,93.45,0,0,0,5.84-8.49.41.41,0,0,1,.05-.09,93.54,93.54,0,0,0,2.42-92.71c-1-1.88-2-3.61-3.08-5.28a93.52,93.52,0,0,0-19.93-22.68,96,96,0,0,0-7.73-5.73A93,93,0,0,0,200,56.54ZM280.77,199h0Z" fill="#093f68"/><path d="M280.77,199h0a93.48,93.48,0,0,1-5.95,8.66,96.29,96.29,0,0,1-6.66,7.74,94.06,94.06,0,0,1-27.37,19.81h0a92.19,92.19,0,0,1-13.27,5.18v-9.11c0-2.95-9.26-13.48-16.94-21.72-5.46-5.85-10.13-10.55-10.13-10.55l8.22-15,11.82-21.52.08-.15,1.49-2.71,3.88-7.06s9.43,4.45,20.38,10.93c13.23,7.84,28.7,18.63,32.49,28.1A39.93,39.93,0,0,1,280.77,199Z" fill="#ffc9b0"/><path d="M227.51,241.39a1,1,0,0,1-.6-.2,1,1,0,0,1-.4-.8v-9.11c0-.74-1.2-4.44-16.67-21-5.39-5.77-10.06-10.48-10.11-10.53a1,1,0,0,1-.17-1.18l25.49-46.41a1,1,0,0,1,1.31-.42c.09,0,9.6,4.54,20.46,11,18.67,11.07,29.74,20.68,32.91,28.59a41,41,0,0,1,2,7.54,1.1,1.1,0,0,1,0,.18h0a1,1,0,0,1-.15.52,93.69,93.69,0,0,1-6,8.75,97.2,97.2,0,0,1-6.73,7.82,94.58,94.58,0,0,1-27.59,20l-.08,0a92.68,92.68,0,0,1-13.41,5.24A.92.92,0,0,1,227.51,241.39Zm-25.84-42.55c1.38,1.39,5.28,5.37,9.63,10,17.21,18.46,17.21,21.32,17.21,22.4V239a91.58,91.58,0,0,0,11.77-4.69l.08,0a92.85,92.85,0,0,0,27.08-19.6A99.11,99.11,0,0,0,274,207a94.57,94.57,0,0,0,5.69-8.25,38.87,38.87,0,0,0-1.85-6.79c-2.95-7.38-14-16.93-32.07-27.61-8.92-5.28-16.9-9.24-19.45-10.48Z" fill="#093f68"/><rect x="153.69" y="72.43" width="92.63" height="160.35" rx="8.42" fill="#68e1fd" class="target-color"/><path d="M237.9,233.78H162.1a9.43,9.43,0,0,1-9.41-9.42V80.84a9.42,9.42,0,0,1,9.41-9.41h75.8a9.42,9.42,0,0,1,9.41,9.41V224.36A9.43,9.43,0,0,1,237.9,233.78ZM162.1,73.43a7.41,7.41,0,0,0-7.41,7.41V224.36a7.42,7.42,0,0,0,7.41,7.42h75.8a7.42,7.42,0,0,0,7.41-7.42V80.84a7.41,7.41,0,0,0-7.41-7.41Z" fill="#093f68"/><path d="M199.48,227.55a6.67,6.67,0,1,1,6.66-6.67A6.67,6.67,0,0,1,199.48,227.55Zm0-11.33a4.67,4.67,0,1,0,4.66,4.66A4.67,4.67,0,0,0,199.48,216.22Z" fill="#093f68"/><rect x="153.69" y="84.68" width="92.63" height="124.88" fill="#093f68"/><path d="M246.31,210.56H153.69a1,1,0,0,1-1-1V84.68a1,1,0,0,1,1-1h92.62a1,1,0,0,1,1,1V209.56A1,1,0,0,1,246.31,210.56Zm-91.62-2h90.62V85.68H154.69Z" fill="#093f68"/><path d="M195.4,79.76h-1.89a1,1,0,0,1,0-2h1.89a1,1,0,0,1,0,2Z" fill="#093f68"/><path d="M206.49,79.76H198a1,1,0,0,1,0-2h8.5a1,1,0,0,1,0,2Z" fill="#093f68"/><path d="M181.65,232.78a21.93,21.93,0,0,1-2.88,7.21,12.3,12.3,0,0,1-1.29,1.77c-.82-.2-1.62-.41-2.43-.63a93.26,93.26,0,0,1-20.47-8.3l3-1.39c5.26-2.42,14.12-6.29,18-6.77C179.68,224.17,182.63,227.22,181.65,232.78Z" fill="#ffc9b0"/><path d="M177.48,242.76a1,1,0,0,1-.24,0c-.82-.2-1.63-.41-2.45-.64a94.18,94.18,0,0,1-20.69-8.38,1,1,0,0,1-.52-.91,1,1,0,0,1,.58-.88l.8-.37,2.18-1c6.22-2.86,14.45-6.38,18.28-6.85a6.39,6.39,0,0,1,5.57,1.8c1.61,1.7,2.19,4.35,1.65,7.47h0a23.11,23.11,0,0,1-3,7.55,13.49,13.49,0,0,1-1.39,1.91A1,1,0,0,1,177.48,242.76Zm-20.67-9.87a92.65,92.65,0,0,0,18.5,7.28l1.8.47a8.84,8.84,0,0,0,.79-1.15,21,21,0,0,0,2.77-6.88h0c.43-2.48,0-4.53-1.13-5.75a4.46,4.46,0,0,0-3.88-1.2c-3.76.47-12.69,4.39-17.68,6.69Z" fill="#093f68"/><rect x="163.09" y="158.59" width="73.82" height="29.22" rx="7.73" fill="#ffbc0e"/><path d="M229.17,188.81H170.83a8.75,8.75,0,0,1-8.74-8.73V166.33a8.75,8.75,0,0,1,8.74-8.74h58.34a8.75,8.75,0,0,1,8.74,8.74v13.75A8.75,8.75,0,0,1,229.17,188.81Zm-58.34-29.22a6.74,6.74,0,0,0-6.74,6.74v13.75a6.74,6.74,0,0,0,6.74,6.73h58.34a6.74,6.74,0,0,0,6.74-6.73V166.33a6.74,6.74,0,0,0-6.74-6.74Z" fill="#093f68"/><path d="M196.89,182.06l-7.69-8.47a1.6,1.6,0,0,1,.1-2.26l2.14-1.94a1.61,1.61,0,0,1,2.26.11l4.63,5.1,12.77-11.87a1.59,1.59,0,0,1,2.25.08l2,2.12a1.59,1.59,0,0,1-.08,2.25l-16.11,15A1.58,1.58,0,0,1,196.89,182.06Z" fill="#fff"/><path d="M198.06,183.58H198a2.55,2.55,0,0,1-1.8-.84l-7.69-8.47a2.6,2.6,0,0,1-.68-1.87,2.64,2.64,0,0,1,.85-1.8l2.14-1.94a2.61,2.61,0,0,1,3.67.17l3.95,4.36,12-11.18a2.6,2.6,0,0,1,3.67.13l2,2.12a2.6,2.6,0,0,1-.14,3.67l-16.11,15A2.59,2.59,0,0,1,198.06,183.58ZM192.52,170a.59.59,0,0,0-.4.15L190,172.07a.59.59,0,0,0,0,.84l7.69,8.48h0a.63.63,0,0,0,.41.19.53.53,0,0,0,.41-.16l16.11-15a.6.6,0,0,0,0-.84l-2-2.12a.6.6,0,0,0-.84,0L199,175.33a1,1,0,0,1-1.42-.06l-4.63-5.1A.59.59,0,0,0,192.52,170Z" fill="#093f68"/><path d="M155.66,229.77c-.56.88-1.12,1.79-1.7,2.72a95,95,0,0,1-36.76-37,18.75,18.75,0,0,1,12.09-.34c2.16.67,20.28,7.46,20.28,7.46s1.74-2.87,4.12-6.76l9.84-16.11c.38-.62.74-1.19,1.06-1.72,2.09-3.4,7.89-12.06,15.37-9.25,7.21,2.71,3.91,9.42,1.37,15.27l-.27.64a196.19,196.19,0,0,1-12.74,24.88C164.51,215.94,160.42,222.16,155.66,229.77Z" fill="#ffc9b0"/><path d="M154,233.49a1,1,0,0,1-.49-.13A96.13,96.13,0,0,1,116.32,196a1,1,0,0,1-.06-.83,1,1,0,0,1,.6-.59,19.65,19.65,0,0,1,12.73-.35c1.93.59,16,5.86,19.56,7.18.65-1.08,2-3.31,3.69-6l9.84-16.11.47-.76c.2-.34.4-.65.58-1,6.57-10.67,12.64-11.15,16.58-9.67a7.38,7.38,0,0,1,4.51,3.89c1.47,3.48-.42,7.8-2.25,12l-.32.74c-.09.2-.18.42-.27.63a197.13,197.13,0,0,1-12.8,25c-2.45,4.11-5.05,8.19-7.8,12.52-1.55,2.44-3.17,5-4.87,7.71h0c-.4.63-.8,1.28-1.21,1.94l-.48.77A1,1,0,0,1,154,233.49Zm-35.3-37.43A94.31,94.31,0,0,0,126,207a93.24,93.24,0,0,0,27.65,24.11c.4-.65.8-1.29,1.2-1.91,1.7-2.73,3.32-5.28,4.87-7.73,2.75-4.31,5.33-8.38,7.77-12.46a194.72,194.72,0,0,0,12.68-24.76c.09-.21.18-.41.26-.63l.34-.76c1.58-3.62,3.37-7.72,2.23-10.4a5.35,5.35,0,0,0-3.36-2.79c-5.87-2.21-10.94,3.59-14.17,8.83-.18.31-.38.63-.59,1l-.47.75-9.84,16.11-4.11,6.76a1,1,0,0,1-1.21.42c-.18-.07-18.12-6.79-20.23-7.44A17.57,17.57,0,0,0,118.66,196.06Zm37,33.71h0Z" fill="#093f68"/><path d="M248,228.12s-.7-.65-1.88-1.78c-3.33-3.14-10.52-10.05-16.82-16.78-5.3-5.66-10-11.2-11.2-14.28A11,11,0,0,1,219.33,184a12.7,12.7,0,0,1,8.7-4.59c1.46-.16,3.77,1,6.57,3a111.43,111.43,0,0,1,11.71,10c9.49,9.08,17.43,16.82,20,19.68" fill="#ffc9b0"/><path d="M248,229.12a1,1,0,0,1-.68-.27s-.7-.65-1.89-1.79c-2.22-2.09-10-9.51-16.86-16.82-6.45-6.88-10.28-11.79-11.4-14.59a12.08,12.08,0,0,1,1.41-12.23,13.65,13.65,0,0,1,9.38-5c1.66-.18,4,.82,7.26,3.14A111.82,111.82,0,0,1,247,191.74c11.21,10.72,17.76,17.18,20,19.74a1,1,0,1,1-1.49,1.32c-2.21-2.48-8.91-9.08-19.92-19.62a107.29,107.29,0,0,0-11.6-9.94c-3.66-2.59-5.26-2.87-5.88-2.8a11.64,11.64,0,0,0-8,4.22c-2.24,2.85-2.64,6.49-1.13,10.25.7,1.76,3.18,5.62,11,14,6.8,7.26,14.56,14.64,16.78,16.73,1.17,1.13,1.87,1.77,1.87,1.78a1,1,0,0,1,.05,1.41A1,1,0,0,1,248,229.12Z" fill="#093f68"/><rect x="155.72" y="59.15" width="88.56" height="63.49" rx="4.36" transform="translate(290.89 -109.11) rotate(90)" fill="#fff"/><path d="M227.38,136.17H172.62a5.37,5.37,0,0,1-5.37-5.36V51a5.38,5.38,0,0,1,5.37-5.36h54.76A5.38,5.38,0,0,1,232.75,51v79.84A5.37,5.37,0,0,1,227.38,136.17ZM172.62,47.61A3.37,3.37,0,0,0,169.25,51v79.84a3.36,3.36,0,0,0,3.37,3.36h54.76a3.36,3.36,0,0,0,3.37-3.36V51a3.37,3.37,0,0,0-3.37-3.36Z" fill="#093f68"/><path d="M230.56,134.81a1,1,0,0,1-.76-.34L192.12,91.55a1,1,0,0,1,0-1.32L229.8,47.32a1,1,0,0,1,1.51,1.32l-37.1,42.25,37.1,42.26a1,1,0,0,1-.09,1.41A1,1,0,0,1,230.56,134.81Z" fill="#093f68"/><path d="M169.46,134.82a1.07,1.07,0,0,1-.67-.25,1,1,0,0,1-.08-1.42l30.64-34.69a1,1,0,0,1,1.5,1.33l-30.64,34.69A1,1,0,0,1,169.46,134.82Z" fill="#093f68"/><path d="M200.1,83.66a1,1,0,0,1-.75-.34L168.71,48.63a1,1,0,0,1,.08-1.41,1,1,0,0,1,1.42.09L200.85,82a1,1,0,0,1-.09,1.41A1,1,0,0,1,200.1,83.66Z" fill="#093f68"/><path d="M211.72,151a1,1,0,0,1-1-1V126.26a1,1,0,0,1,2,0V150A1,1,0,0,1,211.72,151Z" fill="#68e1fd" class="target-color"/><path d="M199.48,156a1,1,0,0,1-1-1V113.31a1,1,0,1,1,2,0V155A1,1,0,0,1,199.48,156Z" fill="#68e1fd" class="target-color"/><path d="M184.34,149.23a1,1,0,0,1-1-1v-10.1a1,1,0,0,1,2,0v10.1A1,1,0,0,1,184.34,149.23Z" fill="#68e1fd" class="target-color"/><path d="M137.42,148.52a1,1,0,0,1-1-1V111.2a1,1,0,0,1,2,0v36.32A1,1,0,0,1,137.42,148.52Z" fill="#dfeaef"/><path d="M122.22,171a1,1,0,0,1-1-1V140a1,1,0,0,1,2,0v30A1,1,0,0,1,122.22,171Z" fill="#dfeaef"/><path d="M261.31,135.15a1,1,0,0,1-1-1V108a1,1,0,1,1,2,0v26.19A1,1,0,0,1,261.31,135.15Z" fill="#dfeaef"/><path d="M269.57,149.43a1,1,0,0,1-1-1V131.51a1,1,0,0,1,2,0v16.92A1,1,0,0,1,269.57,149.43Z" fill="#dfeaef"/><path d="M280.77,163.3a1,1,0,0,1-1-1V129.36a1,1,0,0,1,2,0V162.3A1,1,0,0,1,280.77,163.3Z" fill="#dfeaef"/></g></svg>